<svg xmlns="http://www.w3.org/2000/svg" width="1080" height="779" viewBox="0 0 1080 779" role="img" aria-label="CALENDAR &amp; BOOKING SYSTEM HIGH-LEVEL DESIGN (HLD)">

<defs>
  <linearGradient id="bg-grad" x1="0" y1="0" x2="1" y2="1">
    <stop offset="0" stop-color="#f7fbfd"/>
    <stop offset="1" stop-color="#eef3f6"/>
  </linearGradient>
  <linearGradient id="card-grad" x1="0" y1="0" x2="0" y2="1">
    <stop offset="0" stop-color="#fbfdfe"/>
    <stop offset="1" stop-color="#eef6fb"/>
  </linearGradient>
  <linearGradient id="green-card-grad" x1="0" y1="0" x2="0" y2="1">
    <stop offset="0" stop-color="#fbfef9"/>
    <stop offset="1" stop-color="#ecf8e8"/>
  </linearGradient>
  <linearGradient id="db-grad" x1="0" y1="0" x2="1" y2="0">
    <stop offset="0" stop-color="#84a9d1"/>
    <stop offset="0.5" stop-color="#5f88b8"/>
    <stop offset="1" stop-color="#3f668e"/>
  </linearGradient>
  <linearGradient id="redis-grad" x1="0" y1="0" x2="1" y2="1">
    <stop offset="0" stop-color="#dd5848"/>
    <stop offset="1" stop-color="#b93325"/>
  </linearGradient>
  <filter id="card-shadow" x="-20%" y="-20%" width="140%" height="150%">
    <feDropShadow dx="0" dy="4" stdDeviation="3" flood-color="#6f7f86" flood-opacity="0.32"/>
  </filter>
  <filter id="soft-shadow" x="-20%" y="-20%" width="140%" height="150%">
    <feDropShadow dx="0" dy="2" stdDeviation="2" flood-color="#4a5c65" flood-opacity="0.26"/>
  </filter>
  <style>
    .title { font-family: Inter, Arial, Helvetica, sans-serif; font-weight: 800; letter-spacing: 0.2px; fill: #0f151a; }
    .mono { font-family: 'Courier New', 'Courier Prime', 'DejaVu Sans Mono', Menlo, Consolas, monospace; fill: #111820; }
    .label { font-family: 'Courier New', 'Courier Prime', 'DejaVu Sans Mono', Menlo, Consolas, monospace; fill: #111820; }
  </style>
  <marker id="arrow-blue" viewBox="0 0 10 10" refX="8.5" refY="5" markerWidth="7" markerHeight="7" orient="auto-start-reverse">
  <path d="M 0 0 L 10 5 L 0 10 z" fill="#365f78"/>
</marker>
<marker id="arrow-green" viewBox="0 0 10 10" refX="8.5" refY="5" markerWidth="7" markerHeight="7" orient="auto-start-reverse">
  <path d="M 0 0 L 10 5 L 0 10 z" fill="#67915f"/>
</marker>
<marker id="arrow-c46272187" viewBox="0 0 10 10" refX="8.5" refY="5" markerWidth="7" markerHeight="7" orient="auto-start-reverse">
  <path d="M 0 0 L 10 5 L 0 10 z" fill="#365f78"/>
</marker>
<marker id="arrow-cfb0f6001" viewBox="0 0 10 10" refX="8.5" refY="5" markerWidth="7" markerHeight="7" orient="auto-start-reverse">
  <path d="M 0 0 L 10 5 L 0 10 z" fill="#67915f"/>
</marker>
</defs>

<rect width="1080" height="779" fill="url(#bg-grad)"/>
<g opacity="0.23" stroke="#b8c8ce" stroke-width="1" fill="none">
<path d="M 740 0 L 1160 138.0"/>
<path d="M 782 0 L 1160 152.7"/>
<path d="M 824 0 L 1160 167.4"/>
<path d="M 866 0 L 1160 182.1"/>
<path d="M 908 0 L 1160 196.8"/>
<path d="M 950 0 L 1160 211.5"/>
<path d="M 992 0 L 1160 226.2"/>
<path d="M 1034 0 L 1160 240.9"/>
<path d="M 1076 0 L 1160 255.6"/>
<path d="M 1118 0 L 1160 270.3"/>
<path d="M 1160 0 L 1160 285.0"/>
<path d="M 1202 0 L 1160 299.7"/>
<path d="M 895.0 0 L 912.0 280"/>
<path d="M 903.28 0 L 920.28 326"/>
<path d="M 911.56 0 L 928.56 372"/>
<path d="M 919.84 0 L 936.84 418"/>
<path d="M 928.12 0 L 945.12 464"/>
<path d="M 936.4 0 L 953.4 510"/>
<path d="M 944.68 0 L 961.68 556"/>
<path d="M 952.96 0 L 969.96 602"/>
<path d="M 961.24 0 L 978.24 648"/>
<rect x="0" y="468" width="145" height="180" rx="3"/>
<path d="M 0 468 L 28 450 L 173 450 L 145 468"/>
<path d="M 145 468 L 173 450 L 173 630 L 145 648"/>
<rect x="18" y="512" width="122" height="155" rx="3"/>
<path d="M 18 512 L 46 494 L 168 494 L 140 512"/>
<path d="M 140 512 L 168 494 L 168 649 L 140 667"/>
<rect x="50" y="585" width="110" height="114" rx="3"/>
<path d="M 50 585 L 78 567 L 188 567 L 160 585"/>
<path d="M 160 585 L 188 567 L 188 681 L 160 699"/>
<rect x="82" y="634" width="120" height="88" rx="3"/>
<path d="M 82 634 L 110 616 L 230 616 L 202 634"/>
<path d="M 202 634 L 230 616 L 230 704 L 202 722"/>
<line x1="0" y1="430" x2="1080" y2="430" opacity="0.22"/>
<line x1="0" y1="490" x2="1080" y2="490" opacity="0.22"/>
<line x1="0" y1="550" x2="1080" y2="550" opacity="0.22"/>
<line x1="0" y1="610" x2="1080" y2="610" opacity="0.22"/>
<line x1="0" y1="670" x2="1080" y2="670" opacity="0.22"/>
<line x1="0" y1="730" x2="1080" y2="730" opacity="0.22"/>
<line x1="0" y1="0" x2="0" y2="779" opacity="0.10"/>
<line x1="90" y1="0" x2="90" y2="779" opacity="0.10"/>
<line x1="180" y1="0" x2="180" y2="779" opacity="0.10"/>
<line x1="270" y1="0" x2="270" y2="779" opacity="0.10"/>
<line x1="360" y1="0" x2="360" y2="779" opacity="0.10"/>
<line x1="450" y1="0" x2="450" y2="779" opacity="0.10"/>
<line x1="540" y1="0" x2="540" y2="779" opacity="0.10"/>
<line x1="630" y1="0" x2="630" y2="779" opacity="0.10"/>
<line x1="720" y1="0" x2="720" y2="779" opacity="0.10"/>
<line x1="810" y1="0" x2="810" y2="779" opacity="0.10"/>
<line x1="900" y1="0" x2="900" y2="779" opacity="0.10"/>
<line x1="990" y1="0" x2="990" y2="779" opacity="0.10"/>
</g>
<text class="title" x="540.0" y="31" font-size="24" text-anchor="middle">CALENDAR &amp; BOOKING SYSTEM HIGH-LEVEL DESIGN (HLD)</text>
<path d="M 273 73 L 320 73.5" fill="none" stroke="#365f78" stroke-width="2.1" stroke-linecap="round" stroke-linejoin="round" marker-end="url(#arrow-c46272187)"/>
<path d="M 354 100 L 354 148" fill="none" stroke="#365f78" stroke-width="2.1" stroke-linecap="round" stroke-linejoin="round" marker-end="url(#arrow-c46272187)"/>
<path d="M 518 100 L 518 148" fill="none" stroke="#365f78" stroke-width="2.1" stroke-linecap="round" stroke-linejoin="round" marker-end="url(#arrow-c46272187)"/>
<path d="M 679 100 L 679 148" fill="none" stroke="#365f78" stroke-width="2.1" stroke-linecap="round" stroke-linejoin="round" marker-end="url(#arrow-c46272187)"/>
<path d="M 862 100 L 862 148" fill="none" stroke="#365f78" stroke-width="2.1" stroke-linecap="round" stroke-linejoin="round" marker-end="url(#arrow-c46272187)"/>
<path d="M 309 227 L 309 281" fill="none" stroke="#365f78" stroke-width="2.1" stroke-linecap="round" stroke-linejoin="round" marker-end="url(#arrow-c46272187)"/>
<path d="M 503 227 L 503 281" fill="none" stroke="#365f78" stroke-width="2.1" stroke-linecap="round" stroke-linejoin="round" marker-end="url(#arrow-c46272187)"/>
<path d="M 679 227 L 679 307" fill="none" stroke="#365f78" stroke-width="2.1" stroke-linecap="round" stroke-linejoin="round" marker-end="url(#arrow-c46272187)"/>
<path d="M 862 227 L 862 307" fill="none" stroke="#365f78" stroke-width="2.1" stroke-linecap="round" stroke-linejoin="round" marker-end="url(#arrow-c46272187)"/>
<path d="M 274 388 L 274 438" fill="none" stroke="#365f78" stroke-width="2.1" stroke-linecap="round" stroke-linejoin="round" marker-end="url(#arrow-c46272187)"/>
<path d="M 497 388 L 497 438" fill="none" stroke="#365f78" stroke-width="2.1" stroke-linecap="round" stroke-linejoin="round" marker-end="url(#arrow-c46272187)"/>
<path d="M 235 495 L 235 520" fill="none" stroke="#365f78" stroke-width="2.1" stroke-linecap="round" stroke-linejoin="round" marker-end="url(#arrow-c46272187)"/>
<path d="M 326 495 L 326 520" fill="none" stroke="#365f78" stroke-width="2.1" stroke-linecap="round" stroke-linejoin="round" marker-end="url(#arrow-c46272187)"/>
<path d="M 438 495 L 438 520" fill="none" stroke="#365f78" stroke-width="2.1" stroke-linecap="round" stroke-linejoin="round" marker-end="url(#arrow-c46272187)"/>
<path d="M 554 495 L 554 520" fill="none" stroke="#365f78" stroke-width="2.1" stroke-linecap="round" stroke-linejoin="round" marker-end="url(#arrow-c46272187)"/>
<path d="M 680 495 L 680 520" fill="none" stroke="#365f78" stroke-width="2.1" stroke-linecap="round" stroke-linejoin="round" marker-end="url(#arrow-c46272187)"/>
<path d="M 324 626 L 324 679" fill="none" stroke="#365f78" stroke-width="2.1" stroke-linecap="round" stroke-linejoin="round" marker-end="url(#arrow-c46272187)"/>
<path d="M 252 708 L 78 708 L 78 99" fill="none" stroke="#365f78" stroke-width="2.1" stroke-linecap="round" stroke-linejoin="round" marker-end="url(#arrow-c46272187)"/>
<path d="M 436 626 L 419 704 L 455 704" fill="none" stroke="#365f78" stroke-width="2.1" stroke-linecap="round" stroke-linejoin="round" marker-end="url(#arrow-c46272187)"/>
<path d="M 692 625 L 692 674" fill="none" stroke="#67915f" stroke-width="2.1" stroke-linecap="round" stroke-linejoin="round" marker-end="url(#arrow-cfb0f6001)"/>
<path d="M 765 572 L 881 572 L 881 494" fill="none" stroke="#67915f" stroke-width="2.1" stroke-linecap="round" stroke-linejoin="round" marker-end="url(#arrow-cfb0f6001)"/>
<path d="M 974 737 L 817 737" fill="none" stroke="#365f78" stroke-width="2.1" stroke-linecap="round" stroke-linejoin="round" marker-end="url(#arrow-c46272187)"/>
<rect x="37" y="47" width="236" height="52" rx="8" ry="8" fill="url(#card-grad)" stroke="#8aa6b0" stroke-width="1.8" filter="url(#card-shadow)"/>
<rect x="38.5" y="48.5" width="233" height="49" rx="6.5" ry="6.5" fill="none" stroke="#ffffff" stroke-width="1" opacity="0.55"/>
<text class="mono" x="155" y="79.3" font-size="18" text-anchor="middle">
<tspan x="155" dy="0">Client (web/mobile)</tspan>
</text>
<rect x="320" y="47" width="597" height="53" rx="8" ry="8" fill="url(#card-grad)" stroke="#8aa6b0" stroke-width="1.8" filter="url(#card-shadow)"/>
<rect x="321.5" y="48.5" width="594" height="50" rx="6.5" ry="6.5" fill="none" stroke="#ffffff" stroke-width="1" opacity="0.55"/>
<rect x="219" y="148" width="189" height="79" rx="8" ry="8" fill="url(#card-grad)" stroke="#8aa6b0" stroke-width="1.8" filter="url(#card-shadow)"/>
<rect x="220.5" y="149.5" width="186" height="76" rx="6.5" ry="6.5" fill="none" stroke="#ffffff" stroke-width="1" opacity="0.55"/>
<text class="mono" x="313.5" y="182.82" font-size="18" text-anchor="middle">
<tspan x="313.5" dy="0">Event Service</tspan>
<tspan x="313.5" dy="21.96">(create/edit)</tspan>
</text>
<rect x="430" y="148" width="146" height="79" rx="8" ry="8" fill="url(#card-grad)" stroke="#8aa6b0" stroke-width="1.8" filter="url(#card-shadow)"/>
<rect x="431.5" y="149.5" width="143" height="76" rx="6.5" ry="6.5" fill="none" stroke="#ffffff" stroke-width="1" opacity="0.55"/>
<text class="mono" x="503" y="182.82" font-size="18" text-anchor="middle">
<tspan x="503" dy="0">RSVP</tspan>
<tspan x="503" dy="21.96">Service</tspan>
</text>
<rect x="596" y="148" width="166" height="79" rx="8" ry="8" fill="url(#card-grad)" stroke="#8aa6b0" stroke-width="1.8" filter="url(#card-shadow)"/>
<rect x="597.5" y="149.5" width="163" height="76" rx="6.5" ry="6.5" fill="none" stroke="#ffffff" stroke-width="1" opacity="0.55"/>
<text class="mono" x="679" y="182.82" font-size="18" text-anchor="middle">
<tspan x="679" dy="0">Availability</tspan>
<tspan x="679" dy="21.96">Service</tspan>
</text>
<rect x="783" y="148" width="158" height="79" rx="8" ry="8" fill="url(#card-grad)" stroke="#8aa6b0" stroke-width="1.8" filter="url(#card-shadow)"/>
<rect x="784.5" y="149.5" width="155" height="76" rx="6.5" ry="6.5" fill="none" stroke="#ffffff" stroke-width="1" opacity="0.55"/>
<text class="mono" x="862" y="171.84" font-size="18" text-anchor="middle">
<tspan x="862" dy="0">Calendar</tspan>
<tspan x="862" dy="21.96">Read</tspan>
<tspan x="862" dy="21.96">Service</tspan>
</text>
<rect x="209" y="281" width="130" height="107" rx="8" ry="8" fill="url(#card-grad)" stroke="#8aa6b0" stroke-width="1.8" filter="url(#card-shadow)"/>
<rect x="210.5" y="282.5" width="127" height="104" rx="6.5" ry="6.5" fill="none" stroke="#ffffff" stroke-width="1" opacity="0.55"/>
<text class="mono" x="274" y="318.84" font-size="18" text-anchor="middle">
<tspan x="274" dy="0">Event DB</tspan>
<tspan x="274" dy="21.96">(Document,</tspan>
<tspan x="274" dy="21.96">SoT)</tspan>
</text>
<rect x="418" y="281" width="158" height="107" rx="8" ry="8" fill="url(#card-grad)" stroke="#8aa6b0" stroke-width="1.8" filter="url(#card-shadow)"/>
<rect x="419.5" y="282.5" width="155" height="104" rx="6.5" ry="6.5" fill="none" stroke="#ffffff" stroke-width="1" opacity="0.55"/>
<text class="mono" x="497" y="318.84" font-size="18" text-anchor="middle">
<tspan x="497" dy="0">RSVP Log</tspan>
<tspan x="497" dy="21.96">(Cassandra</tspan>
<tspan x="497" dy="21.96">SoT)</tspan>
</text>
<rect x="627" y="307" width="159" height="113" rx="8" ry="8" fill="url(#card-grad)" stroke="#8aa6b0" stroke-width="1.8" filter="url(#card-shadow)"/>
<rect x="628.5" y="308.5" width="156" height="110" rx="6.5" ry="6.5" fill="none" stroke="#ffffff" stroke-width="1" opacity="0.55"/>
<text class="mono" x="706.5" y="348.71" font-size="17" text-anchor="middle">
<tspan x="706.5" dy="0">Room Booking</tspan>
<tspan x="706.5" dy="20.74">DB (Spanner)</tspan>
<tspan x="706.5" dy="20.74">STRONG · SoT</tspan>
</text>
<rect x="817" y="307" width="133" height="187" rx="8" ry="8" fill="url(#card-grad)" stroke="#8aa6b0" stroke-width="1.8" filter="url(#card-shadow)"/>
<rect x="818.5" y="308.5" width="130" height="184" rx="6.5" ry="6.5" fill="none" stroke="#ffffff" stroke-width="1" opacity="0.55"/>
<text class="mono" x="827" y="343.45" font-size="17" text-anchor="start">
<tspan x="827" dy="0">Redis ZSET</tspan>
<tspan x="827" dy="21"></tspan>
<tspan x="827" dy="21">per-user</tspan>
<tspan x="827" dy="21">score=start</tspan>
<tspan x="827" dy="21">TTL fallbk</tspan>
<tspan x="827" dy="21">(rebuild</tspan>
<tspan x="827" dy="21">from SoT)</tspan>
</text>
<rect x="209" y="438" width="595" height="57" rx="9" ry="9" fill="url(#card-grad)" stroke="#8aa6b0" stroke-width="1.8" filter="url(#card-shadow)"/>
<g opacity="0.95">
<rect x="650" y="439" width="138" height="55" fill="#e2ebef" stroke="none"/>
<path d="M 650 440 C 662 448 662 485 650 493 L 668 493 C 680 485 680 448 668 440 Z" fill="#dfe7ec" stroke="#96a8b0" stroke-width="0.8"/>
<path d="M 675.6 440 C 687.6 448 687.6 485 675.6 493 L 693.6 493 C 705.6 485 705.6 448 693.6 440 Z" fill="#c9d5dc" stroke="#96a8b0" stroke-width="0.8"/>
<path d="M 701.2 440 C 713.2 448 713.2 485 701.2 493 L 719.2 493 C 731.2 485 731.2 448 719.2 440 Z" fill="#dfe7ec" stroke="#96a8b0" stroke-width="0.8"/>
<path d="M 726.8 440 C 738.8 448 738.8 485 726.8 493 L 744.8 493 C 756.8 485 756.8 448 744.8 440 Z" fill="#c9d5dc" stroke="#96a8b0" stroke-width="0.8"/>
<path d="M 752.4 440 C 764.4 448 764.4 485 752.4 493 L 770.4 493 C 782.4 485 782.4 448 770.4 440 Z" fill="#dfe7ec" stroke="#96a8b0" stroke-width="0.8"/>
<path d="M 732 440 C 744 448 744 485 732 493 L 751 493 C 763 485 763 448 751 440 Z" fill="#b6c8d2" stroke="#567b93" stroke-width="0.9"/>
<path d="M 754 440 C 766 448 766 485 754 493 L 773 493 C 785 485 785 448 773 440 Z" fill="#78a0bd" stroke="#567b93" stroke-width="0.9"/>
<path d="M 776 440 C 788 448 788 485 776 493 L 795 493 C 807 485 807 448 795 440 Z" fill="#3e78a9" stroke="#567b93" stroke-width="0.9"/>
<ellipse cx="791" cy="466.5" rx="15" ry="26.5" fill="#d6e5ec" stroke="#8aa6b0" stroke-width="1.5"/>
</g>
<g transform="translate(240 449.5) scale(0.82)" filter="url(#soft-shadow)">
<path d="M 19 9 L 19 30 M 19 19 L 7 13 M 19 20 L 8 27 M 19 12 L 31 7 M 19 27 L 31 33" stroke="#111820" stroke-width="3" stroke-linecap="round"/>
<circle cx="19" cy="9" r="5" fill="#f7fbfc" stroke="#111820" stroke-width="3"/>
<circle cx="19" cy="30" r="5" fill="#f7fbfc" stroke="#111820" stroke-width="3"/>
<circle cx="7" cy="13" r="4.2" fill="#f7fbfc" stroke="#111820" stroke-width="3"/>
<circle cx="8" cy="27" r="4.2" fill="#f7fbfc" stroke="#111820" stroke-width="3"/>
<circle cx="31" cy="7" r="4.2" fill="#f7fbfc" stroke="#111820" stroke-width="3"/>
<circle cx="31" cy="33" r="4.2" fill="#f7fbfc" stroke="#111820" stroke-width="3"/>
</g>
<text class="mono" x="277" y="473.15" font-size="19" font-weight="700">kafka Change Stream (Kafka / CDC)</text>
<rect x="176" y="520" width="78" height="106" rx="8" ry="8" fill="url(#card-grad)" stroke="#8aa6b0" stroke-width="1.8" filter="url(#card-shadow)"/>
<rect x="177.5" y="521.5" width="75" height="103" rx="6.5" ry="6.5" fill="none" stroke="#ffffff" stroke-width="1" opacity="0.55"/>
<text class="mono" x="215" y="558.21" font-size="17" text-anchor="middle">
<tspan x="215" dy="0">Search</tspan>
<tspan x="215" dy="20.74">Index</tspan>
<tspan x="215" dy="20.74">(ES)</tspan>
</text>
<rect x="274" y="520" width="101" height="106" rx="8" ry="8" fill="url(#card-grad)" stroke="#8aa6b0" stroke-width="1.8" filter="url(#card-shadow)"/>
<rect x="275.5" y="521.5" width="98" height="103" rx="6.5" ry="6.5" fill="none" stroke="#ffffff" stroke-width="1" opacity="0.55"/>
<text class="mono" x="324.5" y="559.08" font-size="16" text-anchor="middle">
<tspan x="324.5" dy="0">Reminder</tspan>
<tspan x="324.5" dy="19.52">Schedlr</tspan>
<tspan x="324.5" dy="19.52">(buckets)</tspan>
</text>
<rect x="397" y="520" width="79" height="106" rx="8" ry="8" fill="url(#card-grad)" stroke="#8aa6b0" stroke-width="1.8" filter="url(#card-shadow)"/>
<rect x="398.5" y="521.5" width="76" height="103" rx="6.5" ry="6.5" fill="none" stroke="#ffffff" stroke-width="1" opacity="0.55"/>
<text class="mono" x="436.5" y="559.08" font-size="16" text-anchor="middle">
<tspan x="436.5" dy="0">Sync</tspan>
<tspan x="436.5" dy="19.52">Change</tspan>
<tspan x="436.5" dy="19.52">Log</tspan>
</text>
<rect x="499" y="520" width="110" height="106" rx="8" ry="8" fill="url(#card-grad)" stroke="#8aa6b0" stroke-width="1.8" filter="url(#card-shadow)"/>
<rect x="500.5" y="521.5" width="107" height="103" rx="6.5" ry="6.5" fill="none" stroke="#ffffff" stroke-width="1" opacity="0.55"/>
<text class="mono" x="554" y="549.32" font-size="16" text-anchor="middle">
<tspan x="554" dy="0">Fan-out</tspan>
<tspan x="554" dy="19.52">Worker</tspan>
<tspan x="554" dy="19.52">(per-</tspan>
<tspan x="554" dy="19.52">att)</tspan>
</text>
<rect x="620" y="520" width="145" height="105" rx="8" ry="8" fill="url(#green-card-grad)" stroke="#67915f" stroke-width="1.8" filter="url(#card-shadow)"/>
<rect x="621.5" y="521.5" width="142" height="102" rx="6.5" ry="6.5" fill="none" stroke="#ffffff" stroke-width="1" opacity="0.55"/>
<text class="mono" x="692.5" y="556.84" font-size="18" text-anchor="middle">
<tspan x="692.5" dy="0">Avail.</tspan>
<tspan x="692.5" dy="21.96"></tspan>
<tspan x="692.5" dy="21.96">Updater</tspan>
</text>
<rect x="252" y="679" width="112" height="58" rx="8" ry="8" fill="url(#card-grad)" stroke="#8aa6b0" stroke-width="1.8" filter="url(#card-shadow)"/>
<rect x="253.5" y="680.5" width="109" height="55" rx="6.5" ry="6.5" fill="none" stroke="#ffffff" stroke-width="1" opacity="0.55"/>
<text class="mono" x="308" y="714.3" font-size="18" text-anchor="middle">
<tspan x="308" dy="0">Notif Svc</tspan>
</text>
<rect x="619" y="674" width="198" height="103" rx="8" ry="8" fill="url(#card-grad)" stroke="#8aa6b0" stroke-width="1.8" filter="url(#card-shadow)"/>
<rect x="620.5" y="675.5" width="195" height="100" rx="6.5" ry="6.5" fill="none" stroke="#ffffff" stroke-width="1" opacity="0.55"/>
<text class="mono" x="718" y="701.82" font-size="16" text-anchor="middle">
<tspan x="718" dy="0">User Availab.</tspan>
<tspan x="718" dy="19.52">(Spanner -</tspan>
<tspan x="718" dy="19.52">derived,</tspan>
<tspan x="718" dy="19.52">eventual-&gt;SoT)</tspan>
</text>
<g transform="translate(116 88) scale(0.94)" filter="url(#soft-shadow)">
<rect x="4" y="0" width="20" height="40" rx="3" fill="#59636a" stroke="#2e353a" stroke-width="1.2"/>
<rect x="7" y="4" width="14" height="30" fill="#343b40" opacity="0.85"/>
<circle cx="14" cy="37" r="1.4" fill="#c8d0d4"/>
<rect x="34" y="3" width="55" height="35" rx="2" fill="#4f5d65" stroke="#2e353a" stroke-width="1.4"/>
<rect x="38" y="7" width="47" height="26" fill="#252b30" opacity="0.86"/>
<path d="M 55 39 L 69 39 L 72 45 L 52 45 Z" fill="#59636a" stroke="#2e353a" stroke-width="1"/>
<path d="M 41 31 L 82 9" stroke="#778790" stroke-width="1" opacity="0.45"/>
</g>
<g transform="translate(500 60) scale(0.72)" filter="url(#soft-shadow)">
<circle cx="10" cy="14" r="7" fill="#f1d56b" stroke="#b58917" stroke-width="2"/>
<circle cx="10" cy="14" r="2.7" fill="#fff3b0" stroke="#b58917" stroke-width="1"/>
<path d="M 16 14 L 39 14" stroke="#b58917" stroke-width="4" stroke-linecap="round"/>
<path d="M 30 14 L 30 21 M 36 14 L 36 19" stroke="#b58917" stroke-width="3" stroke-linecap="round"/>
</g>
<g transform="translate(641 59) scale(0.8)" filter="url(#soft-shadow)">
<circle cx="18" cy="18" r="15" fill="#f4f5f6" stroke="#8e9aa0" stroke-width="2"/>
<circle cx="18" cy="18" r="2" fill="#8e9aa0"/>
<path d="M 18 18 L 18 8 M 18 18 L 25 22" stroke="#7d888e" stroke-width="2.4" stroke-linecap="round"/>
<path d="M 18 4 L 18 7 M 18 29 L 18 32 M 4 18 L 7 18 M 29 18 L 32 18" stroke="#b8c0c4" stroke-width="1.2"/>
</g>
<g transform="translate(807 59) scale(0.8)" filter="url(#soft-shadow)">
<circle cx="18" cy="18" r="5" fill="#4d7ea8"/>
<path d="M 18 4 L 18 32 M 4 18 L 32 18" stroke="#4d7ea8" stroke-width="4" stroke-linecap="round"/>
<path d="M 18 1 L 24 8 L 12 8 Z M 18 35 L 12 28 L 24 28 Z M 1 18 L 8 12 L 8 24 Z M 35 18 L 28 24 L 28 12 Z" fill="#4d7ea8"/>
</g>
<g transform="translate(349 173) scale(0.83)" filter="url(#soft-shadow)">
<rect x="1" y="5" width="38" height="34" rx="4" fill="#f7fbfc" stroke="#607983" stroke-width="1.8"/>
<rect x="1" y="5" width="38" height="9" rx="4" fill="#cf6a5d"/>
<path d="M 1 13 L 39 13" stroke="#607983" stroke-width="1.2"/>
<path d="M 10 2 L 10 9 M 30 2 L 30 9" stroke="#607983" stroke-width="3" stroke-linecap="round"/>
<path d="M 9 20 L 31 20 M 9 27 L 31 27 M 9 34 L 25 34" stroke="#a9b8be" stroke-width="1.4"/>

<path d="M 29 30 L 42 17 L 47 22 L 34 35 L 27 37 Z" fill="#e7c76b" stroke="#7d5c25" stroke-width="1.2"/>
<path d="M 40 19 L 45 24" stroke="#7d5c25" stroke-width="1.3"/>
<path d="M 27 37 L 30 32 L 34 35 Z" fill="#2f3538"/>
</g>
<g transform="translate(538 174) scale(0.86)" filter="url(#soft-shadow)">
<rect x="6" y="4" width="32" height="42" rx="4" fill="#f7fbfc" stroke="#637c87" stroke-width="1.8"/>
<rect x="14" y="1" width="16" height="8" rx="3" fill="#e4e9ec" stroke="#637c87" stroke-width="1.4"/>
<path d="M 14 17 L 18 21 L 26 13 M 14 30 L 18 34 L 26 26" fill="none" stroke="#62a66a" stroke-width="2.4" stroke-linecap="round" stroke-linejoin="round"/>
<path d="M 29 18 L 34 18 M 29 31 L 34 31" stroke="#a0aeb5" stroke-width="1.6"/>
</g>
<g transform="translate(718 174) scale(0.82)" filter="url(#soft-shadow)">
<rect x="1" y="5" width="38" height="34" rx="4" fill="#f7fbfc" stroke="#607983" stroke-width="1.8"/>
<rect x="1" y="5" width="38" height="9" rx="4" fill="#cf6a5d"/>
<path d="M 1 13 L 39 13" stroke="#607983" stroke-width="1.2"/>
<path d="M 10 2 L 10 9 M 30 2 L 30 9" stroke="#607983" stroke-width="3" stroke-linecap="round"/>
<path d="M 9 20 L 31 20 M 9 27 L 31 27 M 9 34 L 25 34" stroke="#a9b8be" stroke-width="1.4"/>

<circle cx="37" cy="35" r="11" fill="#65b96f" stroke="#477b4e" stroke-width="1.2"/>
<path d="M 31 35 L 35 39 L 43 30" fill="none" stroke="#fff" stroke-width="3" stroke-linecap="round" stroke-linejoin="round"/>
</g>
<g transform="translate(904 196) scale(0.82)" filter="url(#soft-shadow)">
<rect x="1" y="5" width="38" height="34" rx="4" fill="#f7fbfc" stroke="#607983" stroke-width="1.8"/>
<rect x="1" y="5" width="38" height="9" rx="4" fill="#cf6a5d"/>
<path d="M 1 13 L 39 13" stroke="#607983" stroke-width="1.2"/>
<path d="M 10 2 L 10 9 M 30 2 L 30 9" stroke="#607983" stroke-width="3" stroke-linecap="round"/>
<path d="M 9 20 L 31 20 M 9 27 L 31 27 M 9 34 L 25 34" stroke="#a9b8be" stroke-width="1.4"/>
</g>
<g transform="translate(910 212) scale(0.75)" filter="url(#soft-shadow)">
<circle cx="14" cy="14" r="9" fill="#f7fbfc" stroke="#324b5a" stroke-width="2.2"/>
<path d="M 21 21 L 34 34" stroke="#324b5a" stroke-width="4" stroke-linecap="round"/>
<circle cx="34" cy="36" r="6" fill="#5dbb74"/>
<circle cx="25" cy="36" r="6" fill="#42a5c7"/>
<circle cx="29" cy="27" r="6" fill="#e3c848"/>
<path d="M 10 14 C 14 9 18 10 21 14" fill="none" stroke="#9db0ba" stroke-width="1.3"/>
</g>
<g transform="translate(739 276) scale(0.92)" filter="url(#soft-shadow)">
<rect x="3" y="5" width="38" height="37" rx="3" fill="#d7e5f0" stroke="#45677e" stroke-width="1.6"/>
<path d="M 15 5 L 15 42 M 28 5 L 28 42" stroke="#7d98aa" stroke-width="1.2"/>
<path d="M 6 29 C 14 20 18 33 25 24 C 30 18 34 22 39 16" fill="none" stroke="#45677e" stroke-width="2"/>
<path d="M 9 12 L 12 16 L 9 20 L 6 16 Z M 31 31 L 34 35 L 31 39 L 28 35 Z" fill="#6f94b2"/>
</g>
<g transform="translate(305 352) scale(0.86)" filter="url(#soft-shadow)">
<ellipse cx="20" cy="7" rx="18" ry="6" fill="#94b6d7" stroke="#335979" stroke-width="1.4"/>
<path d="M 2 7 L 2 37 C 2 45 38 45 38 37 L 38 7" fill="url(#db-grad)" stroke="#335979" stroke-width="1.4"/>
<ellipse cx="20" cy="37" rx="18" ry="6" fill="#5f88b8" stroke="#335979" stroke-width="1.4"/>
<path d="M 2 17 C 2 25 38 25 38 17 M 2 27 C 2 35 38 35 38 27" fill="none" stroke="#315573" stroke-width="1" opacity="0.7"/>
<ellipse cx="20" cy="7" rx="18" ry="6" fill="none" stroke="#c7d8e8" stroke-width="1" opacity="0.8"/>
</g>
<g transform="translate(515 352) scale(0.86)" filter="url(#soft-shadow)">
<ellipse cx="20" cy="7" rx="18" ry="6" fill="#94b6d7" stroke="#335979" stroke-width="1.4"/>
<path d="M 2 7 L 2 37 C 2 45 38 45 38 37 L 38 7" fill="url(#db-grad)" stroke="#335979" stroke-width="1.4"/>
<ellipse cx="20" cy="37" rx="18" ry="6" fill="#5f88b8" stroke="#335979" stroke-width="1.4"/>
<path d="M 2 17 C 2 25 38 25 38 17 M 2 27 C 2 35 38 35 38 27" fill="none" stroke="#315573" stroke-width="1" opacity="0.7"/>
<ellipse cx="20" cy="7" rx="18" ry="6" fill="none" stroke="#c7d8e8" stroke-width="1" opacity="0.8"/>
</g>
<g transform="translate(906 299) scale(0.92)" filter="url(#soft-shadow)">
<g transform="skewY(-12)">
  <rect x="0" y="17" width="38" height="10" rx="2" fill="#7d261d" opacity="0.85"/>
  <rect x="0" y="9" width="38" height="10" rx="2" fill="#a92e24"/>
  <rect x="0" y="1" width="38" height="10" rx="2" fill="url(#redis-grad)"/>
</g>
<path d="M 9 4 L 20 1 L 31 4 L 20 7 Z" fill="#f06b5b" opacity="0.8"/>
<circle cx="13" cy="11" r="1.6" fill="#ffd7d1"/><circle cx="23" cy="9" r="1.5" fill="#ffd7d1"/>
</g>
<g transform="translate(234 589) scale(0.78)" filter="url(#soft-shadow)">
<circle cx="14" cy="14" r="9" fill="#f7fbfc" stroke="#324b5a" stroke-width="2.2"/>
<path d="M 21 21 L 34 34" stroke="#324b5a" stroke-width="4" stroke-linecap="round"/>
<circle cx="34" cy="36" r="6" fill="#5dbb74"/>
<circle cx="25" cy="36" r="6" fill="#42a5c7"/>
<circle cx="29" cy="27" r="6" fill="#e3c848"/>
<path d="M 10 14 C 14 9 18 10 21 14" fill="none" stroke="#9db0ba" stroke-width="1.3"/>
</g>
<g transform="translate(349 601) scale(0.72)" filter="url(#soft-shadow)">
<circle cx="22" cy="24" r="14" fill="#fff8f4" stroke="#8f4b49" stroke-width="2.1"/>
<circle cx="22" cy="24" r="2" fill="#8f4b49"/>
<path d="M 22 24 L 22 15 M 22 24 L 29 29" stroke="#8f4b49" stroke-width="2.2" stroke-linecap="round"/>
<path d="M 10 8 C 3 10 1 17 6 21 M 34 8 C 41 10 43 17 38 21" fill="none" stroke="#b65f5b" stroke-width="3" stroke-linecap="round"/>
<path d="M 13 37 L 8 44 M 31 37 L 36 44" stroke="#8f4b49" stroke-width="2.4" stroke-linecap="round"/>
</g>
<g transform="translate(453 600) scale(0.73)" filter="url(#soft-shadow)">
<path d="M 6 2 L 27 2 L 38 13 L 38 45 L 6 45 Z" fill="#d9e7f2" stroke="#496a80" stroke-width="1.7"/>
<path d="M 27 2 L 27 13 L 38 13" fill="#b7cedf" stroke="#496a80" stroke-width="1.2"/>
<path d="M 12 19 L 31 19 M 12 26 L 31 26 M 12 33 L 28 33" stroke="#6e8799" stroke-width="1.6"/>
<rect x="2" y="33" width="12" height="11" fill="#8aa7bd" stroke="#496a80" stroke-width="1"/>
</g>
<g transform="translate(548 603) scale(0.72)" filter="url(#soft-shadow)">
<circle cx="22" cy="20" r="6" fill="#5f88b8" stroke="#345a75" stroke-width="1.5"/>
<circle cx="8" cy="8" r="5" fill="#86a7c3" stroke="#345a75" stroke-width="1.4"/>
<circle cx="39" cy="8" r="5" fill="#86a7c3" stroke="#345a75" stroke-width="1.4"/>
<circle cx="8" cy="35" r="5" fill="#86a7c3" stroke="#345a75" stroke-width="1.4"/>
<circle cx="39" cy="35" r="5" fill="#86a7c3" stroke="#345a75" stroke-width="1.4"/>
<path d="M 18 17 L 11 11 M 26 17 L 36 11 M 18 24 L 12 32 M 26 24 L 36 32" stroke="#345a75" stroke-width="2.2" stroke-linecap="round"/>
</g>
<g transform="translate(628 544) scale(0.9)" filter="url(#soft-shadow)">
<path d="M 10 39 L 10 7" stroke="#4775a6" stroke-width="5" stroke-linecap="round"/>
<path d="M 10 1 L 2 13 L 18 13 Z" fill="#4775a6"/>
<path d="M 29 3 L 29 35" stroke="#66a160" stroke-width="5" stroke-linecap="round"/>
<path d="M 29 41 L 21 29 L 37 29 Z" fill="#66a160"/>
</g>
<g transform="translate(738 586) scale(0.78)" filter="url(#soft-shadow)">
<path d="M 8 24 C 11 10 26 4 38 12" fill="none" stroke="#4f8c79" stroke-width="4" stroke-linecap="round"/>
<path d="M 39 7 L 42 17 L 31 15 Z" fill="#4f8c79"/>
<path d="M 42 25 C 38 39 22 45 10 36" fill="none" stroke="#4f8c79" stroke-width="4" stroke-linecap="round"/>
<path d="M 9 41 L 7 30 L 18 33 Z" fill="#4f8c79"/>
</g>
<g transform="translate(306 728) scale(0.7)" filter="url(#soft-shadow)">
<rect x="0" y="5" width="34" height="58" rx="5" fill="#4f6470" stroke="#263640" stroke-width="1.8"/>
<rect x="5" y="11" width="24" height="41" fill="#9fc3df" opacity="0.92"/>
<circle cx="17" cy="58" r="2" fill="#d8e2e6"/>
<path d="M 16 30 C 16 23 27 23 27 30 L 27 39 L 31 43 L 12 43 L 16 39 Z" fill="#e4c344" stroke="#8a6b18" stroke-width="1.5"/>
<path d="M 18 43 C 19 48 24 48 26 43" fill="none" stroke="#8a6b18" stroke-width="1.6"/>
<path d="M 35 30 C 43 34 43 43 35 48" fill="none" stroke="#8a6b18" stroke-width="2.4" stroke-linecap="round"/>
</g>
<g transform="translate(609 735) scale(0.75)" filter="url(#soft-shadow)">
<ellipse cx="20" cy="7" rx="18" ry="6" fill="#94b6d7" stroke="#335979" stroke-width="1.4"/>
<path d="M 2 7 L 2 37 C 2 45 38 45 38 37 L 38 7" fill="url(#db-grad)" stroke="#335979" stroke-width="1.4"/>
<ellipse cx="20" cy="37" rx="18" ry="6" fill="#5f88b8" stroke="#335979" stroke-width="1.4"/>
<path d="M 2 17 C 2 25 38 25 38 17 M 2 27 C 2 35 38 35 38 27" fill="none" stroke="#315573" stroke-width="1" opacity="0.7"/>
<ellipse cx="20" cy="7" rx="18" ry="6" fill="none" stroke="#c7d8e8" stroke-width="1" opacity="0.8"/>
</g>
<g transform="translate(781 665) scale(0.68)" filter="url(#soft-shadow)">
<path d="M 5 4 L 5 42 L 45 42" stroke="#5b6d76" stroke-width="2.1" fill="none"/>
<path d="M 9 35 L 18 27 L 25 31 L 34 15 L 43 20" fill="none" stroke="#455b68" stroke-width="2.6" stroke-linecap="round" stroke-linejoin="round"/>
<circle cx="18" cy="27" r="2.4" fill="#455b68"/><circle cx="34" cy="15" r="2.4" fill="#455b68"/>
<path d="M 14 42 L 14 36 M 24 42 L 24 36 M 34 42 L 34 36" stroke="#9daeb6" stroke-width="1.2"/>
</g>
<text class="label" x="366" y="82" font-size="18" text-anchor="start" fill="#111820" font-weight="400">
<tspan x="366" dy="0">API Gateway -</tspan>
</text>
<text class="label" x="533" y="82" font-size="18" text-anchor="start" fill="#111820" font-weight="400">
<tspan x="533" dy="0">authN-&gt;N,</tspan>
</text>
<text class="label" x="679" y="82" font-size="18" text-anchor="start" fill="#111820" font-weight="400">
<tspan x="679" dy="0">rate-limit,</tspan>
</text>
<text class="label" x="848" y="82" font-size="18" text-anchor="start" fill="#111820" font-weight="400">
<tspan x="848" dy="0">route</tspan>
</text>
<text class="label" x="228" y="261" font-size="18" text-anchor="start" fill="#111820" font-weight="400">
<tspan x="228" dy="0">(SYNC)</tspan>
</text>
<text class="label" x="438" y="261" font-size="18" text-anchor="start" fill="#111820" font-weight="400">
<tspan x="438" dy="0">(SYNC)</tspan>
</text>
<text class="label" x="579" y="261" font-size="16" text-anchor="start" fill="#111820" font-weight="400">
<tspan x="579" dy="0">(SYNC,</tspan>
<tspan x="579" dy="19.52">STRONG)</tspan>
</text>
<text class="label" x="701" y="261" font-size="18" text-anchor="start" fill="#111820" font-weight="400">
<tspan x="701" dy="0">claim</tspan>
</text>
<text class="label" x="888" y="260" font-size="17" text-anchor="start" fill="#111820" font-weight="400">
<tspan x="888" dy="0">GET ?range</tspan>
<tspan x="888" dy="20.74">(1 hop)</tspan>
</text>
<text class="label" x="283" y="419" font-size="17" text-anchor="start" fill="#111820" font-weight="400">
<tspan x="283" dy="0">CDC</tspan>
</text>
<text class="label" x="493" y="419" font-size="17" text-anchor="start" fill="#111820" font-weight="400">
<tspan x="493" dy="0">CDC</tspan>
</text>
<text class="label" x="435" y="686" font-size="16" text-anchor="start" fill="#111820" font-weight="400">
<tspan x="435" dy="0">GET ?sync_token</tspan>
<tspan x="435" dy="19.52">(delta)</tspan>
<tspan x="435" dy="19.52">per-user</tspan>
<tspan x="435" dy="19.52">change log</tspan>
<tspan x="435" dy="19.52">(Cassandra)</tspan>
</text>
<text class="label" x="898" y="526" font-size="17" text-anchor="start" fill="#111820" font-weight="400">
<tspan x="898" dy="0">fan-out</tspan>
<tspan x="898" dy="20.74">(delta)</tspan>
</text>
<text class="label" x="691" y="658" font-size="18" text-anchor="start" fill="#111820" font-weight="400">
<tspan x="691" dy="0">writes</tspan>
</text>
<text class="label" x="837" y="713" font-size="17" text-anchor="start" fill="#111820" font-weight="400">
<tspan x="837" dy="0">Availability</tspan>
<tspan x="837" dy="20.74">Service reads</tspan>
<tspan x="837" dy="20.74">(eventual)</tspan>
</text>
<text class="label" x="78" y="712" font-size="17" text-anchor="start" fill="#111820" font-weight="400">
<tspan x="78" dy="0">push</tspan>
<tspan x="78" dy="20.74">(silent wake)</tspan>
</text>
</svg>